<?xml version="1.0" encoding="UTF-8" standalone="no" ?>
<!DOCTYPE svg PUBLIC "-//W3C//DTD SVG 1.1//EN" "http://www.w3.org/Graphics/SVG/1.1/DTD/svg11.dtd">
<svg xmlns="http://www.w3.org/2000/svg" xmlns:xlink="http://www.w3.org/1999/xlink" version="1.1" width="992" height="744" viewBox="0 0 640 480" xml:space="preserve">
<desc>Created with Fabric.js 3.6.3</desc>
<defs>
</defs>
<g transform="matrix(5.74 0 0 5.74 475.48 213.68)" style=""  >
		<text xml:space="preserve" font-family="'Open Sans', sans-serif" font-size="22" font-style="italic" font-weight="normal" style="stroke: none; stroke-width: 1; stroke-dasharray: none; stroke-linecap: butt; stroke-dashoffset: 0; stroke-linejoin: miter; stroke-miterlimit: 4; fill: rgb(0,0,0); fill-rule: nonzero; opacity: 1; white-space: pre;" ><tspan x="-18.84" y="6.91" >Bell</tspan></text>
</g>
<g transform="matrix(2.9 0 0 2.9 272.29 233.15)"  >
<g style=""   >
		<g transform="matrix(1.3 0 0 1.3 -20.7 62.57)"  >
<path style="stroke: rgb(0,0,0); stroke-width: 1.06; stroke-dasharray: none; stroke-linecap: butt; stroke-dashoffset: 0; stroke-linejoin: miter; stroke-miterlimit: 3.99; fill: none; fill-rule: nonzero; opacity: 1;"  transform=" translate(-83.29, -237.48)" d="m 70.756 237.48 h 25.065" stroke-linecap="round" />
</g>
		<g transform="matrix(1.3 0 0 1.3 0.19 62.78)"  >
<path style="stroke: rgb(0,0,0); stroke-width: 1.06; stroke-dasharray: none; stroke-linecap: butt; stroke-dashoffset: 0; stroke-linejoin: miter; stroke-miterlimit: 3.99; fill: none; fill-rule: nonzero; opacity: 1;"  transform=" translate(-150.69, -203.86)" d="m 153.74 203.86 a 3.0409 3.2943 0 1 1 -6.09 0 a 3.0409 3.2943 0 1 1 6.09 0 z" stroke-linecap="round" />
</g>
		<g transform="matrix(1.3 0 0 1.3 20.8 62.67)"  >
<path style="stroke: rgb(0,0,0); stroke-width: 1.06; stroke-dasharray: none; stroke-linecap: butt; stroke-dashoffset: 0; stroke-linejoin: miter; stroke-miterlimit: 3.99; fill: none; fill-rule: nonzero; opacity: 1;"  transform=" translate(-115.22, -237.56)" d="m 102.76 237.56 h 24.91" stroke-linecap="round" />
</g>
		<g transform="matrix(1.3 0 0 1.3 0.56 -2.43)"  >
<path style="stroke: rgb(0,0,0); stroke-width: 1.06; stroke-dasharray: none; stroke-linecap: butt; stroke-dashoffset: 0; stroke-linejoin: miter; stroke-miterlimit: 3.99; fill: none; fill-rule: nonzero; opacity: 1;"  transform=" translate(-460.08, -318.44)" d="m 435.58 368.16 l 18.25 -41.06 l 12.54 -58.39 l 10.71 1.39 l -1 60.75 l 8.5 37.31" stroke-linecap="round" />
</g>
</g>
</g>
</svg>