<?xml version="1.0" encoding="UTF-8" standalone="no" ?>
<!DOCTYPE svg PUBLIC "-//W3C//DTD SVG 1.1//EN" "http://www.w3.org/Graphics/SVG/1.1/DTD/svg11.dtd">
<svg xmlns="http://www.w3.org/2000/svg" xmlns:xlink="http://www.w3.org/1999/xlink" version="1.1" width="992" height="744" viewBox="0 0 640 480" xml:space="preserve">
<desc>Created with Fabric.js 3.6.3</desc>
<defs>
</defs>
<g transform="matrix(3.34 0 0 3.34 319.22 239.54)"  >
<g style=""   >
		<g transform="matrix(5.42 0 0 5.42 -29.84 56.96)" id="Layer_1"  >
<path style="stroke: none; stroke-width: 1; stroke-dasharray: none; stroke-linecap: butt; stroke-dashoffset: 0; stroke-linejoin: miter; stroke-miterlimit: 4; fill: rgb(0,0,0); fill-rule: nonzero; opacity: 1;"  transform=" translate(-56.04, -35.87)" d="M 54.54 38.01 l 0.74 -4.29 h 1.09 c 0.27 0 0.46 0.02 0.59 0.07 c 0.19 0.07 0.33 0.18 0.43 0.34 c 0.1 0.16 0.15 0.37 0.15 0.61 c 0 0.24 -0.05 0.45 -0.16 0.63 s -0.27 0.31 -0.49 0.4 c 0.19 0.07 0.33 0.19 0.42 0.34 s 0.15 0.33 0.15 0.54 c 0 0.25 -0.06 0.48 -0.18 0.7 c -0.12 0.22 -0.27 0.38 -0.45 0.5 c -0.18 0.11 -0.38 0.17 -0.6 0.17 H 54.54 z M 55.1 37.53 h 0.8 c 0.21 0 0.35 -0.01 0.42 -0.02 c 0.13 -0.03 0.24 -0.07 0.33 -0.14 c 0.1 -0.06 0.18 -0.16 0.24 -0.29 c 0.06 -0.13 0.09 -0.27 0.09 -0.42 c 0 -0.21 -0.05 -0.37 -0.16 -0.47 c -0.11 -0.1 -0.3 -0.15 -0.58 -0.15 h -0.89 L 55.1 37.53 z M 55.44 35.55 h 0.71 c 0.34 0 0.58 -0.06 0.71 -0.18 c 0.16 -0.15 0.24 -0.35 0.24 -0.61 c 0 -0.13 -0.03 -0.24 -0.08 -0.33 c -0.05 -0.09 -0.12 -0.15 -0.19 -0.19 s -0.22 -0.05 -0.42 -0.05 h -0.75 L 55.44 35.55 z" stroke-linecap="round" />
</g>
		<g transform="matrix(5.42 0 0 5.42 -11 56.96)" id="Layer_1"  >
<path style="stroke: none; stroke-width: 1; stroke-dasharray: none; stroke-linecap: butt; stroke-dashoffset: 0; stroke-linejoin: miter; stroke-miterlimit: 4; fill: rgb(0,0,0); fill-rule: nonzero; opacity: 1;"  transform=" translate(-59.52, -35.87)" d="M 57.85 38.01 l 0.74 -4.29 h 1.46 c 0.32 0 0.54 0.03 0.68 0.1 c 0.14 0.07 0.24 0.17 0.31 0.3 c 0.09 0.18 0.14 0.39 0.14 0.64 c 0 0.37 -0.1 0.67 -0.3 0.89 c -0.2 0.22 -0.49 0.36 -0.89 0.43 c 0.13 0.12 0.23 0.24 0.3 0.37 c 0.14 0.25 0.25 0.5 0.34 0.76 l 0.27 0.81 h -0.53 l -0.25 -0.8 c -0.09 -0.31 -0.2 -0.56 -0.32 -0.77 c -0.07 -0.13 -0.15 -0.22 -0.23 -0.27 c -0.08 -0.04 -0.21 -0.07 -0.4 -0.07 h -0.53 l -0.33 1.91 H 57.85 z M 58.73 35.64 h 0.64 c 0.35 0 0.59 -0.01 0.72 -0.04 c 0.13 -0.03 0.24 -0.08 0.33 -0.16 c 0.1 -0.08 0.17 -0.17 0.23 -0.29 s 0.08 -0.25 0.08 -0.4 c 0 -0.13 -0.02 -0.24 -0.07 -0.33 c -0.05 -0.09 -0.11 -0.15 -0.18 -0.18 s -0.2 -0.05 -0.38 -0.05 h -1.13 L 58.73 35.64 z" stroke-linecap="round" />
</g>
		<g transform="matrix(5.42 0 0 5.42 7.24 56.96)" id="Layer_1"  >
<path style="stroke: none; stroke-width: 1; stroke-dasharray: none; stroke-linecap: butt; stroke-dashoffset: 0; stroke-linejoin: miter; stroke-miterlimit: 4; fill: rgb(0,0,0); fill-rule: nonzero; opacity: 1;"  transform=" translate(-62.88, -35.87)" d="M 61.38 38.01 l 0.74 -4.29 h 1.09 c 0.26 0 0.46 0.02 0.59 0.07 c 0.19 0.07 0.33 0.18 0.43 0.34 s 0.15 0.37 0.15 0.61 c 0 0.24 -0.05 0.45 -0.16 0.63 s -0.27 0.31 -0.49 0.4 c 0.19 0.07 0.33 0.19 0.42 0.34 s 0.15 0.33 0.15 0.54 c 0 0.25 -0.06 0.48 -0.18 0.7 c -0.12 0.22 -0.27 0.38 -0.45 0.5 c -0.18 0.11 -0.38 0.17 -0.6 0.17 H 61.38 z M 61.93 37.53 h 0.8 c 0.21 0 0.35 -0.01 0.42 -0.02 c 0.13 -0.03 0.24 -0.07 0.33 -0.14 c 0.1 -0.06 0.18 -0.16 0.24 -0.29 s 0.09 -0.27 0.09 -0.42 c 0 -0.21 -0.05 -0.37 -0.16 -0.47 c -0.11 -0.1 -0.3 -0.15 -0.58 -0.15 h -0.89 L 61.93 37.53 z M 62.27 35.55 h 0.71 c 0.34 0 0.58 -0.06 0.71 -0.18 c 0.16 -0.15 0.24 -0.35 0.24 -0.61 c 0 -0.13 -0.03 -0.24 -0.08 -0.33 c -0.05 -0.09 -0.11 -0.15 -0.19 -0.19 s -0.22 -0.05 -0.42 -0.05 H 62.5 L 62.27 35.55 z" stroke-linecap="round" />
</g>
		<g transform="matrix(5.42 0 0 5.42 5.77 24.66)" id="Layer_1"  >
<line style="stroke: none; stroke-width: 1; stroke-dasharray: none; stroke-linecap: butt; stroke-dashoffset: 0; stroke-linejoin: miter; stroke-miterlimit: 4; fill: rgb(255,255,255); fill-rule: nonzero; opacity: 1;"  x1="-1.3299999999999983" y1="0" x2="1.3299999999999983" y2="0" />
</g>
		<g transform="matrix(5.42 0 0 5.42 5.77 24.66)" id="Layer_1"  >
<rect style="stroke: none; stroke-width: 1; stroke-dasharray: none; stroke-linecap: butt; stroke-dashoffset: 0; stroke-linejoin: miter; stroke-miterlimit: 4; fill: rgb(0,0,0); fill-rule: nonzero; opacity: 1;"  x="-1.33" y="-0.18" rx="0" ry="0" width="2.66" height="0.36" />
</g>
		<g transform="matrix(5.42 0 0 5.42 -18.35 24.66)" id="Layer_1"  >
<line style="stroke: none; stroke-width: 1; stroke-dasharray: none; stroke-linecap: butt; stroke-dashoffset: 0; stroke-linejoin: miter; stroke-miterlimit: 4; fill: rgb(255,255,255); fill-rule: nonzero; opacity: 1;"  x1="-1.3300000000000018" y1="0" x2="1.3300000000000018" y2="0" />
</g>
		<g transform="matrix(5.42 0 0 5.42 -18.35 24.66)" id="Layer_1"  >
<rect style="stroke: none; stroke-width: 1; stroke-dasharray: none; stroke-linecap: butt; stroke-dashoffset: 0; stroke-linejoin: miter; stroke-miterlimit: 4; fill: rgb(0,0,0); fill-rule: nonzero; opacity: 1;"  x="-1.33" y="-0.18" rx="0" ry="0" width="2.66" height="0.36" />
</g>
		<g transform="matrix(5.42 0 0 5.42 17.1 -33.39)" id="Layer_1"  >
<circle style="stroke: none; stroke-width: 1; stroke-dasharray: none; stroke-linecap: butt; stroke-dashoffset: 0; stroke-linejoin: miter; stroke-miterlimit: 4; fill: rgb(0,0,0); fill-rule: nonzero; opacity: 1;"  cx="0" cy="0" r="1.92" />
</g>
		<g transform="matrix(5.42 0 0 5.42 27.56 -58.21)" id="Layer_1"  >
<circle style="stroke: none; stroke-width: 1; stroke-dasharray: none; stroke-linecap: butt; stroke-dashoffset: 0; stroke-linejoin: miter; stroke-miterlimit: 4; fill: rgb(0,0,0); fill-rule: nonzero; opacity: 1;"  cx="0" cy="0" r="1.92" />
</g>
		<g transform="matrix(5.42 0 0 5.42 0.62 2.95)" id="Layer_1"  >
<path style="stroke: none; stroke-width: 1; stroke-dasharray: none; stroke-linecap: butt; stroke-dashoffset: 0; stroke-linejoin: miter; stroke-miterlimit: 4; fill: rgb(0,0,0); fill-rule: nonzero; opacity: 1;"  transform=" translate(-61.66, -25.9)" d="M 61.77 21.72 l -3.51 8.37 h 1.25 c -0.01 -0.06 -0.02 -0.12 -0.02 -0.18 c 0 -0.06 0.01 -0.12 0.02 -0.18 H 58.8 l 3.16 -7.54 l 2.62 1.09 l -2.7 6.45 h -0.62 c 0.01 0.06 0.02 0.12 0.02 0.18 c 0 0.06 -0.01 0.12 -0.02 0.18 h 0.86 l 2.94 -7 L 61.77 21.72 z" stroke-linecap="round" />
</g>
		<g transform="matrix(5.42 0 0 5.42 -6.31 24.61)" id="Layer_1"  >
<path style="stroke: none; stroke-width: 1; stroke-dasharray: none; stroke-linecap: butt; stroke-dashoffset: 0; stroke-linejoin: miter; stroke-miterlimit: 4; fill: rgb(0,0,0); fill-rule: nonzero; opacity: 1;"  transform=" translate(-60.38, -29.9)" d="M 60.38 30.97 c -0.59 0 -1.07 -0.48 -1.07 -1.07 s 0.48 -1.07 1.07 -1.07 s 1.07 0.48 1.07 1.07 S 60.97 30.97 60.38 30.97 z M 60.38 29.19 c -0.4 0 -0.72 0.32 -0.72 0.72 s 0.32 0.72 0.72 0.72 c 0.4 0 0.72 -0.32 0.72 -0.72 S 60.78 29.19 60.38 29.19 z" stroke-linecap="round" />
</g>
</g>
</g>
</svg>