<?xml version="1.0" encoding="UTF-8" standalone="no" ?>
<!DOCTYPE svg PUBLIC "-//W3C//DTD SVG 1.1//EN" "http://www.w3.org/Graphics/SVG/1.1/DTD/svg11.dtd">
<svg xmlns="http://www.w3.org/2000/svg" xmlns:xlink="http://www.w3.org/1999/xlink" version="1.1" width="992" height="744" viewBox="0 0 640 480" xml:space="preserve">
<desc>Created with Fabric.js 3.6.3</desc>
<defs>
</defs>
<g transform="matrix(3.36 0 0 3.36 314.58 239.02)"  >
<g style=""   >
		<g transform="matrix(5.01 0 0 5.01 -15.48 56.31)" id="Layer_1"  >
<path style="stroke: none; stroke-width: 1; stroke-dasharray: none; stroke-linecap: butt; stroke-dashoffset: 0; stroke-linejoin: miter; stroke-miterlimit: 4; fill: rgb(0,0,0); fill-rule: nonzero; opacity: 1;"  transform=" translate(-30.31, -35.87)" d="M 28.81 38.01 l 0.74 -4.29 h 1.09 c 0.27 0 0.46 0.02 0.59 0.07 c 0.19 0.07 0.33 0.18 0.43 0.34 c 0.1 0.16 0.15 0.37 0.15 0.61 c 0 0.24 -0.05 0.45 -0.16 0.63 s -0.27 0.31 -0.49 0.4 c 0.19 0.07 0.33 0.19 0.42 0.34 s 0.15 0.33 0.15 0.54 c 0 0.25 -0.06 0.48 -0.18 0.7 c -0.12 0.22 -0.27 0.38 -0.45 0.5 c -0.18 0.11 -0.38 0.17 -0.6 0.17 H 28.81 z M 29.37 37.53 h 0.8 c 0.21 0 0.35 -0.01 0.42 -0.02 c 0.13 -0.03 0.24 -0.07 0.33 -0.14 c 0.1 -0.06 0.18 -0.16 0.24 -0.29 c 0.06 -0.13 0.09 -0.27 0.09 -0.42 c 0 -0.21 -0.05 -0.37 -0.16 -0.47 c -0.11 -0.1 -0.3 -0.15 -0.58 -0.15 h -0.89 L 29.37 37.53 z M 29.71 35.55 h 0.71 c 0.34 0 0.58 -0.06 0.71 -0.18 c 0.16 -0.15 0.24 -0.35 0.24 -0.61 c 0 -0.13 -0.03 -0.24 -0.08 -0.33 c -0.05 -0.09 -0.12 -0.15 -0.19 -0.19 s -0.22 -0.05 -0.42 -0.05 h -0.75 L 29.71 35.55 z" stroke-linecap="round" />
</g>
		<g transform="matrix(5.01 0 0 5.01 3.36 56.31)" id="Layer_1"  >
<path style="stroke: none; stroke-width: 1; stroke-dasharray: none; stroke-linecap: butt; stroke-dashoffset: 0; stroke-linejoin: miter; stroke-miterlimit: 4; fill: rgb(0,0,0); fill-rule: nonzero; opacity: 1;"  transform=" translate(-34.07, -35.87)" d="M 33.28 38.01 l 0.28 -1.66 l -1.1 -2.63 h 0.5 l 0.53 1.25 c 0.11 0.26 0.22 0.56 0.33 0.88 c 0.11 -0.26 0.27 -0.55 0.48 -0.87 l 0.82 -1.26 h 0.56 l -1.66 2.68 l -0.28 1.62 H 33.28 z" stroke-linecap="round" />
</g>
		<g transform="matrix(5.01 0 0 5.01 8.94 -30.21)" id="Layer_1"  >
<polygon style="stroke: none; stroke-width: 1; stroke-dasharray: none; stroke-linecap: butt; stroke-dashoffset: 0; stroke-linejoin: miter; stroke-miterlimit: 4; fill: rgb(0,0,0); fill-rule: nonzero; opacity: 1;"  points="2.27,2.41 -2.27,1.28 1.06,-2.41 " />
</g>
		<g transform="matrix(5.01 0 0 5.01 15.16 -55.01)" id="Layer_1"  >
<polygon style="stroke: none; stroke-width: 1; stroke-dasharray: none; stroke-linecap: butt; stroke-dashoffset: 0; stroke-linejoin: miter; stroke-miterlimit: 4; fill: rgb(0,0,0); fill-rule: nonzero; opacity: 1;"  points="2.27,2.41 -2.27,1.28 1.07,-2.41 " />
</g>
		<g transform="matrix(5.01 0 0 5.01 -2.08 4.86)" id="Layer_1"  >
<polygon style="stroke: none; stroke-width: 1; stroke-dasharray: none; stroke-linecap: butt; stroke-dashoffset: 0; stroke-linejoin: miter; stroke-miterlimit: 4; fill: rgb(0,0,0); fill-rule: nonzero; opacity: 1;"  points="-3.02,4.35 -3.38,4.26 -2.56,1.04 -0.81,0.41 1.15,-4.35 2.73,-3.98 2.34,1.08 3.38,2.15 3.06,4.33 2.7,4.28 2.99,2.28 1.98,1.22 2.36,-3.7 1.37,-3.93 -0.55,0.7 -2.27,1.32 " />
</g>
		<g transform="matrix(5.01 0 0 5.01 -16.93 26.45)" id="Layer_1"  >
<rect style="stroke: none; stroke-width: 1; stroke-dasharray: none; stroke-linecap: butt; stroke-dashoffset: 0; stroke-linejoin: miter; stroke-miterlimit: 4; fill: rgb(0,0,0); fill-rule: nonzero; opacity: 1;"  x="-1.91" y="-0.18" rx="0" ry="0" width="3.82" height="0.36" />
</g>
		<g transform="matrix(5.01 0 0 5.01 11.17 26.45)" id="Layer_1"  >
<rect style="stroke: none; stroke-width: 1; stroke-dasharray: none; stroke-linecap: butt; stroke-dashoffset: 0; stroke-linejoin: miter; stroke-miterlimit: 4; fill: rgb(0,0,0); fill-rule: nonzero; opacity: 1;"  x="-1.91" y="-0.18" rx="0" ry="0" width="3.82" height="0.36" />
</g>
		<g transform="matrix(5.01 0 0 5.01 -2.91 26.4)" id="Layer_1"  >
<path style="stroke: none; stroke-width: 1; stroke-dasharray: none; stroke-linecap: butt; stroke-dashoffset: 0; stroke-linejoin: miter; stroke-miterlimit: 4; fill: rgb(0,0,0); fill-rule: nonzero; opacity: 1;"  transform=" translate(-32.82, -29.9)" d="M 32.82 30.97 c -0.59 0 -1.07 -0.48 -1.07 -1.07 s 0.48 -1.07 1.07 -1.07 s 1.07 0.48 1.07 1.07 S 33.41 30.97 32.82 30.97 z M 32.82 29.19 c -0.4 0 -0.72 0.32 -0.72 0.72 c 0 0.4 0.32 0.72 0.72 0.72 s 0.72 -0.32 0.72 -0.72 C 33.54 29.51 33.22 29.19 32.82 29.19 z" stroke-linecap="round" />
</g>
</g>
</g>
</svg>