<?xml version="1.0" encoding="UTF-8" standalone="no" ?>
<!DOCTYPE svg PUBLIC "-//W3C//DTD SVG 1.1//EN" "http://www.w3.org/Graphics/SVG/1.1/DTD/svg11.dtd">
<svg xmlns="http://www.w3.org/2000/svg" xmlns:xlink="http://www.w3.org/1999/xlink" version="1.1" width="992" height="744" viewBox="0 0 640 480" xml:space="preserve">
<desc>Created with Fabric.js 3.6.3</desc>
<defs>
</defs>
<g transform="matrix(5.1 0 0 5.1 321.52 238.49)"  >
<g style=""   >
		<g transform="matrix(5.21 0 0 5.21 -19.69 32.28)" id="Layer_1"  >
<path style="stroke: none; stroke-width: 1; stroke-dasharray: none; stroke-linecap: butt; stroke-dashoffset: 0; stroke-linejoin: miter; stroke-miterlimit: 4; fill: rgb(0,0,0); fill-rule: nonzero; opacity: 1;"  transform=" translate(-83.45, -35.86)" d="M 83.36 36.32 l 0.08 -0.49 h 1.54 l -0.3 1.75 c -0.2 0.16 -0.43 0.28 -0.68 0.37 s -0.49 0.13 -0.72 0.13 c -0.5 0 -0.87 -0.17 -1.11 -0.51 c -0.24 -0.34 -0.36 -0.77 -0.36 -1.28 c 0 -0.52 0.09 -0.99 0.28 -1.42 c 0.19 -0.42 0.43 -0.73 0.71 -0.93 s 0.6 -0.3 0.94 -0.3 c 0.41 0 0.74 0.14 0.99 0.42 c 0.18 0.2 0.3 0.5 0.37 0.91 l -0.46 0.06 c -0.05 -0.31 -0.16 -0.54 -0.32 -0.69 c -0.16 -0.15 -0.36 -0.23 -0.6 -0.23 c -0.25 0 -0.48 0.08 -0.7 0.24 s -0.4 0.41 -0.53 0.75 s -0.21 0.73 -0.21 1.19 c 0 0.45 0.09 0.78 0.27 0.99 c 0.18 0.21 0.42 0.32 0.72 0.32 c 0.3 0 0.63 -0.12 0.99 -0.37 l 0.16 -0.92 H 83.36 z" stroke-linecap="round" />
</g>
		<g transform="matrix(5.21 0 0 5.21 -0.83 32.33)" id="Layer_1"  >
<path style="stroke: none; stroke-width: 1; stroke-dasharray: none; stroke-linecap: butt; stroke-dashoffset: 0; stroke-linejoin: miter; stroke-miterlimit: 4; fill: rgb(0,0,0); fill-rule: nonzero; opacity: 1;"  transform=" translate(-87.07, -35.87)" d="M 85.41 38.01 l 0.74 -4.29 h 1.46 c 0.32 0 0.54 0.03 0.68 0.1 s 0.24 0.17 0.31 0.3 c 0.09 0.18 0.14 0.39 0.14 0.64 c 0 0.37 -0.1 0.67 -0.29 0.89 c -0.2 0.22 -0.49 0.36 -0.89 0.43 c 0.13 0.12 0.23 0.24 0.3 0.37 c 0.14 0.25 0.25 0.5 0.34 0.76 l 0.27 0.81 h -0.53 l -0.25 -0.8 c -0.09 -0.31 -0.2 -0.56 -0.32 -0.77 c -0.08 -0.13 -0.15 -0.22 -0.23 -0.27 c -0.08 -0.04 -0.21 -0.07 -0.4 -0.07 h -0.54 l -0.33 1.91 H 85.41 z M 86.29 35.64 h 0.64 c 0.35 0 0.59 -0.01 0.72 -0.04 c 0.13 -0.03 0.24 -0.08 0.33 -0.16 c 0.09 -0.08 0.17 -0.17 0.23 -0.29 c 0.05 -0.12 0.08 -0.25 0.08 -0.4 c 0 -0.13 -0.02 -0.24 -0.07 -0.33 c -0.05 -0.09 -0.11 -0.15 -0.18 -0.18 c -0.07 -0.03 -0.2 -0.05 -0.38 -0.05 h -1.13 L 86.29 35.64 z" stroke-linecap="round" />
</g>
		<g transform="matrix(5.21 0 0 5.21 18.76 32.28)" id="Layer_1"  >
<path style="stroke: none; stroke-width: 1; stroke-dasharray: none; stroke-linecap: butt; stroke-dashoffset: 0; stroke-linejoin: miter; stroke-miterlimit: 4; fill: rgb(0,0,0); fill-rule: nonzero; opacity: 1;"  transform=" translate(-90.83, -35.86)" d="M 90.74 36.32 l 0.08 -0.49 h 1.54 l -0.3 1.75 c -0.2 0.16 -0.43 0.28 -0.68 0.37 s -0.49 0.13 -0.72 0.13 c -0.5 0 -0.87 -0.17 -1.11 -0.51 c -0.24 -0.34 -0.36 -0.77 -0.36 -1.28 c 0 -0.52 0.09 -0.99 0.28 -1.42 c 0.19 -0.42 0.43 -0.73 0.71 -0.93 s 0.6 -0.3 0.94 -0.3 c 0.41 0 0.74 0.14 0.99 0.42 c 0.18 0.2 0.3 0.5 0.37 0.91 l -0.46 0.06 c -0.05 -0.31 -0.16 -0.54 -0.32 -0.69 c -0.16 -0.15 -0.36 -0.23 -0.6 -0.23 c -0.25 0 -0.48 0.08 -0.7 0.24 s -0.4 0.41 -0.53 0.75 s -0.21 0.73 -0.21 1.19 c 0 0.45 0.09 0.78 0.27 0.99 c 0.18 0.21 0.42 0.32 0.72 0.32 c 0.3 0 0.63 -0.12 0.99 -0.37 l 0.16 -0.92 H 90.74 z" stroke-linecap="round" />
</g>
		<g transform="matrix(5.21 0 0 5.21 8.44 -20.61)" id="Layer_1"  >
<polygon style="stroke: none; stroke-width: 1; stroke-dasharray: none; stroke-linecap: butt; stroke-dashoffset: 0; stroke-linejoin: miter; stroke-miterlimit: 4; fill: rgb(0,0,0); fill-rule: nonzero; opacity: 1;"  points="-0.73,-1.23 -1.55,0.6 1.47,1.23 1.56,-0.75 " />
</g>
		<g transform="matrix(5.21 0 0 5.21 4.58 -21.18)" id="Layer_1"  >
<polygon style="stroke: none; stroke-width: 1; stroke-dasharray: none; stroke-linecap: butt; stroke-dashoffset: 0; stroke-linejoin: miter; stroke-miterlimit: 4; fill: rgb(0,0,0); fill-rule: nonzero; opacity: 1;"  points="-3.02,4.35 -3.38,4.26 -2.56,1.04 -0.81,0.41 1.15,-4.35 2.73,-3.98 2.34,1.08 3.38,2.15 3.07,4.33 2.7,4.28 3,2.28 1.98,1.22 2.36,-3.7 1.37,-3.93 -0.55,0.7 -2.27,1.32 " />
</g>
		<g transform="matrix(5.21 0 0 5.21 -10.86 1.28)" id="Layer_1"  >
<rect style="stroke: none; stroke-width: 1; stroke-dasharray: none; stroke-linecap: butt; stroke-dashoffset: 0; stroke-linejoin: miter; stroke-miterlimit: 4; fill: rgb(0,0,0); fill-rule: nonzero; opacity: 1;"  x="-1.91" y="-0.18" rx="0" ry="0" width="3.82" height="0.36" />
</g>
		<g transform="matrix(5.21 0 0 5.21 18.31 1.28)" id="Layer_1"  >
<rect style="stroke: none; stroke-width: 1; stroke-dasharray: none; stroke-linecap: butt; stroke-dashoffset: 0; stroke-linejoin: miter; stroke-miterlimit: 4; fill: rgb(0,0,0); fill-rule: nonzero; opacity: 1;"  x="-1.91" y="-0.18" rx="0" ry="0" width="3.82" height="0.36" />
</g>
		<g transform="matrix(5.21 0 0 5.21 3.73 1.22)" id="Layer_1"  >
<path style="stroke: none; stroke-width: 1; stroke-dasharray: none; stroke-linecap: butt; stroke-dashoffset: 0; stroke-linejoin: miter; stroke-miterlimit: 4; fill: rgb(0,0,0); fill-rule: nonzero; opacity: 1;"  transform=" translate(-87.95, -29.9)" d="M 87.95 30.97 c -0.59 0 -1.07 -0.48 -1.07 -1.07 s 0.48 -1.07 1.07 -1.07 s 1.07 0.48 1.07 1.07 S 88.54 30.97 87.95 30.97 z M 87.95 29.19 c -0.4 0 -0.72 0.32 -0.72 0.72 c 0 0.4 0.32 0.72 0.72 0.72 c 0.4 0 0.72 -0.32 0.72 -0.72 C 88.67 29.51 88.35 29.19 87.95 29.19 z" stroke-linecap="round" />
</g>
</g>
</g>
</svg>