<?xml version="1.0" encoding="UTF-8" standalone="no" ?>
<!DOCTYPE svg PUBLIC "-//W3C//DTD SVG 1.1//EN" "http://www.w3.org/Graphics/SVG/1.1/DTD/svg11.dtd">
<svg xmlns="http://www.w3.org/2000/svg" xmlns:xlink="http://www.w3.org/1999/xlink" version="1.1" width="992" height="744" viewBox="0 0 640 480" xml:space="preserve">
<desc>Created with Fabric.js 3.6.3</desc>
<defs>
</defs>
<g transform="matrix(11.54 0 0 11.54 329.58 266.03)"  >
<g style=""   >
		<g transform="matrix(4.7 0 0 4.7 10.06 -0.45)" id="Layer_1"  >
<path style="stroke: none; stroke-width: 1; stroke-dasharray: none; stroke-linecap: butt; stroke-dashoffset: 0; stroke-linejoin: miter; stroke-miterlimit: 4; fill: rgb(0,0,0); fill-rule: nonzero; opacity: 1;"  transform=" translate(-83.17, -14.54)" d="M 82.93 16.68 V 12.9 h -1.16 v -0.51 h 2.79 v 0.51 h -1.17 v 3.79 H 82.93 z" stroke-linecap="round" />
</g>
		<g transform="matrix(4.7 0 0 4.7 20.94 2.12)" id="Layer_1"  >
<path style="stroke: none; stroke-width: 1; stroke-dasharray: none; stroke-linecap: butt; stroke-dashoffset: 0; stroke-linejoin: miter; stroke-miterlimit: 4; fill: rgb(0,0,0); fill-rule: nonzero; opacity: 1;"  transform=" translate(-85.48, -15.09)" d="M 84.79 16.68 v -3.11 h 0.39 v 0.47 c 0.1 -0.22 0.19 -0.36 0.27 -0.44 s 0.18 -0.11 0.28 -0.11 c 0.14 0 0.29 0.06 0.44 0.17 l -0.15 0.49 c -0.11 -0.08 -0.21 -0.11 -0.31 -0.11 c -0.09 0 -0.18 0.03 -0.25 0.1 s -0.13 0.15 -0.16 0.27 c -0.05 0.2 -0.08 0.42 -0.08 0.64 v 1.63 H 84.79 z" stroke-linecap="round" />
</g>
		<g transform="matrix(4.7 0 0 4.7 -16.05 2.42)" id="Layer_1"  >
<path style="stroke: none; stroke-width: 1; stroke-dasharray: none; stroke-linecap: butt; stroke-dashoffset: 0; stroke-linejoin: miter; stroke-miterlimit: 4; fill: rgb(0,0,0); fill-rule: nonzero; opacity: 1;"  transform=" translate(-77.61, -15.15)" d="M 77.61 16.88 c -0.95 0 -1.73 -0.77 -1.73 -1.73 c 0 -0.95 0.78 -1.73 1.73 -1.73 s 1.73 0.78 1.73 1.73 C 79.33 16.1 78.56 16.88 77.61 16.88 z M 77.61 13.79 c -0.75 0 -1.36 0.61 -1.36 1.36 c 0 0.75 0.61 1.36 1.36 1.36 s 1.36 -0.61 1.36 -1.36 C 78.97 14.4 78.36 13.79 77.61 13.79 z" stroke-linecap="round" />
</g>
		<g transform="matrix(4.7 0 0 4.7 -16.05 2.42)" id="Layer_1"  >
<circle style="stroke: none; stroke-width: 1; stroke-dasharray: none; stroke-linecap: butt; stroke-dashoffset: 0; stroke-linejoin: miter; stroke-miterlimit: 4; fill: rgb(0,0,0); fill-rule: evenodd; opacity: 1;"  cx="0" cy="0" r="0.49" />
</g>
</g>
</g>
</svg>